<svg width="1318" height="1520" viewBox="0 0 1318 1520" fill="none" xmlns="http://www.w3.org/2000/svg">
<rect width="1318" height="1520" fill="#161922"/>
<rect x="1028.62" y="1305.09" width="5.56377" height="64.6788" fill="#1E222E"/>
<rect x="1002" y="1323.67" width="5.56377" height="64.6788" transform="rotate(-60 1002 1323.67)" fill="#1E222E"/>
<rect x="1031.25" y="1303" width="5.56377" height="33.5643" transform="rotate(60 1031.25 1303)" fill="#1E222E"/>
<rect width="5.56377" height="34.1416" transform="matrix(-0.5 0.866025 0.866025 0.5 1031.38 1303)" fill="#1E222E"/>
<rect width="5.56377" height="33.5643" transform="matrix(0.5 -0.866025 -0.866025 -0.5 1031.25 1371.49)" fill="#1E222E"/>
<rect x="1031.38" y="1371.49" width="5.56377" height="34.1416" transform="rotate(-120 1031.38 1371.49)" fill="#1E222E"/>
<rect x="1061.38" y="1354.09" width="5.56377" height="33.5643" transform="rotate(-180 1061.38 1354.09)" fill="#1E222E"/>
<rect x="1002.01" y="1319.96" width="5.56377" height="34.1416" fill="#1E222E"/>
<rect x="1058.01" y="1318.85" width="5.56377" height="64.6788" transform="rotate(60 1058.01 1318.85)" fill="#1E222E"/>
<rect x="261.755" y="422.862" width="4.96569" height="57.7261" fill="#1E222E"/>
<rect x="238" y="439.444" width="4.96569" height="57.7261" transform="rotate(-60 238 439.444)" fill="#1E222E"/>
<rect x="264.11" y="421" width="4.96569" height="29.9563" transform="rotate(60 264.11 421)" fill="#1E222E"/>
<rect width="4.96569" height="30.4716" transform="matrix(-0.5 0.866025 0.866025 0.5 264.226 421)" fill="#1E222E"/>
<rect width="4.96569" height="29.9563" transform="matrix(0.5 -0.866025 -0.866025 -0.5 264.11 482.124)" fill="#1E222E"/>
<rect x="264.226" y="482.124" width="4.96569" height="30.4716" transform="rotate(-120 264.226 482.124)" fill="#1E222E"/>
<rect x="291" y="466.6" width="4.96569" height="29.9563" transform="rotate(-180 291 466.6)" fill="#1E222E"/>
<rect x="238.008" y="436.137" width="4.96569" height="30.4716" fill="#1E222E"/>
<rect x="287.993" y="435.143" width="4.96569" height="57.7261" transform="rotate(60 287.993 435.143)" fill="#1E222E"/>
<rect x="93.583" y="925.849" width="4.92984" height="57.3094" fill="#1E222E"/>
<rect x="70" y="942.311" width="4.92984" height="57.3094" transform="rotate(-60 70 942.311)" fill="#1E222E"/>
<rect x="95.9219" y="924" width="4.92984" height="29.7401" transform="rotate(60 95.9219 924)" fill="#1E222E"/>
<rect width="4.92984" height="30.2516" transform="matrix(-0.5 0.866025 0.866025 0.5 96.0371 924)" fill="#1E222E"/>
<rect width="4.92984" height="29.7401" transform="matrix(0.5 -0.866025 -0.866025 -0.5 95.9219 984.683)" fill="#1E222E"/>
<rect x="96.0371" y="984.683" width="4.92984" height="30.2516" transform="rotate(-120 96.0371 984.683)" fill="#1E222E"/>
<rect x="122.617" y="969.271" width="4.92984" height="29.7401" transform="rotate(-180 122.617 969.271)" fill="#1E222E"/>
<rect x="70.0068" y="939.028" width="4.92984" height="30.2516" fill="#1E222E"/>
<rect x="119.632" y="938.041" width="4.92984" height="57.3094" transform="rotate(60 119.632 938.041)" fill="#1E222E"/>
<rect x="897" y="536" width="70" height="70" rx="7" fill="#1A1E28"/>
<rect x="267" y="949" width="46" height="46" rx="7" fill="#1E222E" fill-opacity="0.5"/>
<rect x="84" y="1055" width="88" height="88" rx="7" fill="#1E222E" fill-opacity="0.5"/>
<rect x="1171" y="1368" width="71" height="71" rx="7" fill="#1E222E" fill-opacity="0.5"/>
<rect x="843" y="1054" width="100" height="100" rx="7" fill="#1E222E" fill-opacity="0.5"/>
<rect x="1059" y="952" width="126" height="126" rx="7" fill="#1E222E" fill-opacity="0.5"/>
<rect x="172" y="1226" width="185" height="185" rx="7" fill="#1E222E" fill-opacity="0.5"/>
<rect x="1083" y="437" width="42" height="42" rx="7" fill="#1A1E28"/>
</svg>
