<svg width="196" height="83" viewBox="0 0 196 83" fill="none" xmlns="http://www.w3.org/2000/svg">
<rect x="13.3721" y="65.7124" width="7" height="17" rx="3.5" transform="rotate(-12.8383 13.3721 65.7124)" fill="#2D5D81"/>
<rect x="2.75732" y="3.21387" width="13" height="75" rx="6.5" transform="rotate(-7.61391 2.75732 3.21387)" fill="#2E80BC"/>
<rect x="0.774902" y="3.479" width="17" height="35" rx="7" transform="rotate(-7.61391 0.774902 3.479)" fill="#3C98DB"/>
<g clip-path="url(#clip0_1075_1088)">
<rect x="34.999" width="161" height="80" rx="7" fill="#2E80BC"/>
<g opacity="0.5">
<circle cx="32.499" cy="76.5" r="20.5" fill="#7177DF"/>
<circle cx="32.499" cy="76.5" r="20.5" fill="#7177DF"/>
<circle cx="32.499" cy="76.5" r="20.5" fill="#7ECBE6"/>
<circle cx="57.499" cy="88.5" r="20.5" fill="#7177DF"/>
<circle cx="57.499" cy="88.5" r="20.5" fill="#7177DF"/>
<circle cx="57.499" cy="88.5" r="20.5" fill="#7ECBE6"/>
<circle cx="20.5" cy="20.5" r="20.5" transform="matrix(1 0 0 -1 173.999 37)" fill="#7177DF"/>
<circle cx="20.5" cy="20.5" r="20.5" transform="matrix(1 0 0 -1 173.999 37)" fill="#7177DF"/>
<circle cx="20.5" cy="20.5" r="20.5" transform="matrix(1 0 0 -1 173.999 37)" fill="#7ECBE6"/>
<circle cx="15" cy="15" r="15" transform="matrix(1 0 0 -1 160.999 10)" fill="#7177DF"/>
<circle cx="15" cy="15" r="15" transform="matrix(1 0 0 -1 160.999 10)" fill="#7177DF"/>
<circle cx="15" cy="15" r="15" transform="matrix(1 0 0 -1 160.999 10)" fill="#7ECBE6"/>
</g>
<path d="M55.82 15.88C55.9133 16.0267 55.9933 16.2267 56.06 16.48C56.14 16.72 56.18 16.9733 56.18 17.24C56.18 17.76 56.0667 18.1333 55.84 18.36C55.6267 18.5733 55.3333 18.68 54.96 18.68H50.76V20.94H55.14C55.2467 21.0867 55.3333 21.28 55.4 21.52C55.48 21.76 55.52 22.0133 55.52 22.28C55.52 22.7867 55.4067 23.1533 55.18 23.38C54.9667 23.5933 54.6733 23.7 54.3 23.7H50.8V27.92C50.6533 27.96 50.42 28 50.1 28.04C49.7933 28.08 49.4867 28.1 49.18 28.1C48.8733 28.1 48.6 28.0733 48.36 28.02C48.1333 27.98 47.94 27.9 47.78 27.78C47.62 27.66 47.5 27.4933 47.42 27.28C47.34 27.0667 47.3 26.7867 47.3 26.44V17.74C47.3 17.1667 47.4667 16.7133 47.8 16.38C48.1333 16.0467 48.5867 15.88 49.16 15.88L55.82 15.88ZM58.0273 21.92C58.0273 20.88 58.1873 19.96 58.5073 19.16C58.8407 18.36 59.2873 17.6933 59.8473 17.16C60.4207 16.6133 61.0873 16.2 61.8473 15.92C62.6207 15.64 63.454 15.5 64.3473 15.5C65.2407 15.5 66.0673 15.64 66.8273 15.92C67.6007 16.2 68.274 16.6133 68.8473 17.16C69.4207 17.6933 69.8673 18.36 70.1873 19.16C70.5207 19.96 70.6873 20.88 70.6873 21.92C70.6873 22.96 70.5273 23.8867 70.2073 24.7C69.8873 25.5 69.4407 26.1733 68.8673 26.72C68.3073 27.2533 67.6407 27.66 66.8673 27.94C66.094 28.22 65.254 28.36 64.3473 28.36C63.4407 28.36 62.6007 28.22 61.8273 27.94C61.054 27.6467 60.3873 27.2267 59.8273 26.68C59.2673 26.1333 58.8273 25.46 58.5073 24.66C58.1873 23.86 58.0273 22.9467 58.0273 21.92ZM61.6273 21.92C61.6273 23.1333 61.874 24.04 62.3673 24.64C62.8607 25.24 63.5207 25.54 64.3473 25.54C65.1873 25.54 65.854 25.24 66.3473 24.64C66.8407 24.04 67.0873 23.1333 67.0873 21.92C67.0873 20.72 66.8407 19.82 66.3473 19.22C65.8673 18.62 65.2073 18.32 64.3673 18.32C63.5407 18.32 62.874 18.62 62.3673 19.22C61.874 19.8067 61.6273 20.7067 61.6273 21.92ZM76.9698 24.08V27.92C76.8232 27.96 76.5898 28 76.2698 28.04C75.9632 28.08 75.6565 28.1 75.3498 28.1C75.0432 28.1 74.7698 28.0733 74.5298 28.02C74.3032 27.98 74.1098 27.9 73.9498 27.78C73.8032 27.66 73.6898 27.4933 73.6098 27.28C73.5298 27.0667 73.4898 26.7867 73.4898 26.44V17.02C73.4898 16.74 73.5632 16.5267 73.7098 16.38C73.8698 16.22 74.0832 16.0933 74.3498 16C74.8032 15.84 75.3298 15.7267 75.9298 15.66C76.5298 15.58 77.1698 15.54 77.8498 15.54C79.6898 15.54 81.0765 15.9267 82.0098 16.7C82.9432 17.4733 83.4098 18.52 83.4098 19.84C83.4098 20.6667 83.1965 21.3733 82.7698 21.96C82.3432 22.5467 81.8365 23 81.2498 23.32C81.7298 23.9733 82.2032 24.5867 82.6698 25.16C83.1365 25.7333 83.5032 26.2533 83.7698 26.72C83.6365 27.1867 83.3898 27.5467 83.0298 27.8C82.6832 28.04 82.2898 28.16 81.8498 28.16C81.5565 28.16 81.3032 28.1267 81.0898 28.06C80.8765 27.9933 80.6898 27.9 80.5298 27.78C80.3698 27.66 80.2232 27.5133 80.0898 27.34C79.9565 27.1667 79.8298 26.98 79.7098 26.78L78.0298 24.08H76.9698ZM78.2298 21.42C78.7365 21.42 79.1365 21.2933 79.4298 21.04C79.7232 20.7733 79.8698 20.3867 79.8698 19.88C79.8698 19.3733 79.7032 18.9933 79.3698 18.74C79.0498 18.4733 78.5365 18.34 77.8298 18.34C77.6298 18.34 77.4698 18.3467 77.3498 18.36C77.2298 18.3733 77.0965 18.3933 76.9498 18.42V21.42H78.2298ZM94.7792 25.02C94.6059 25.1667 94.3792 25.2867 94.0992 25.38C93.8326 25.46 93.5192 25.5 93.1592 25.5C92.6792 25.5 92.2792 25.44 91.9592 25.32C91.6526 25.2 91.4526 24.9933 91.3592 24.7C90.9859 23.5267 90.6792 22.58 90.4392 21.86C90.1992 21.1267 90.0126 20.4867 89.8792 19.94H89.7792C89.7392 20.7267 89.7059 21.4467 89.6792 22.1C89.6659 22.74 89.6526 23.3667 89.6392 23.98C89.6392 24.5933 89.6259 25.2133 89.5992 25.84C89.5859 26.4667 89.5592 27.16 89.5192 27.92C89.3459 27.9867 89.1192 28.04 88.8392 28.08C88.5592 28.1333 88.2792 28.16 87.9992 28.16C87.4126 28.16 86.9526 28.0667 86.6192 27.88C86.2992 27.6933 86.1392 27.3533 86.1392 26.86L86.7192 16.66C86.8259 16.4867 87.0592 16.3 87.4192 16.1C87.7792 15.9 88.2859 15.8 88.9392 15.8C89.6459 15.8 90.1992 15.9133 90.5992 16.14C90.9992 16.3533 91.2926 16.7067 91.4792 17.2C91.5992 17.52 91.7259 17.8867 91.8592 18.3C92.0059 18.7133 92.1459 19.14 92.2792 19.58C92.4259 20.02 92.5659 20.46 92.6992 20.9C92.8326 21.3267 92.9526 21.7133 93.0592 22.06H93.1592C93.4792 20.94 93.7992 19.86 94.1192 18.82C94.4392 17.7667 94.7326 16.8867 94.9992 16.18C95.1992 16.0733 95.4526 15.9867 95.7592 15.92C96.0792 15.84 96.4326 15.8 96.8192 15.8C97.4726 15.8 98.0059 15.9 98.4192 16.1C98.8326 16.2867 99.0726 16.56 99.1392 16.92C99.1926 17.1867 99.2459 17.6 99.2992 18.16C99.3659 18.7067 99.4326 19.3267 99.4992 20.02C99.5659 20.7133 99.6326 21.4467 99.6992 22.22C99.7659 22.9933 99.8259 23.74 99.8792 24.46C99.9459 25.1667 99.9992 25.82 100.039 26.42C100.079 27.0067 100.106 27.46 100.119 27.78C99.8926 27.9133 99.6526 28.0067 99.3992 28.06C99.1592 28.1267 98.8459 28.16 98.4592 28.16C97.9526 28.16 97.5259 28.0733 97.1792 27.9C96.8326 27.7267 96.6459 27.3867 96.6192 26.88C96.5392 25.4267 96.4859 24.12 96.4592 22.96C96.4459 21.8 96.4192 20.8267 96.3792 20.04H96.2792C96.1459 20.56 95.9526 21.2133 95.6992 22C95.4459 22.7867 95.1392 23.7933 94.7792 25.02Z" fill="#1E222E"/>
<rect x="178.343" y="50.6538" width="1.7442" height="20.2763" fill="#1E222E"/>
<rect x="169.999" y="56.4785" width="1.7442" height="20.2763" transform="rotate(-60 169.999 56.4785)" fill="#1E222E"/>
<rect x="179.17" y="50" width="1.7442" height="10.5222" transform="rotate(60 179.17 50)" fill="#1E222E"/>
<rect width="1.7442" height="10.7032" transform="matrix(-0.5 0.866025 0.866025 0.5 179.211 50)" fill="#1E222E"/>
<rect width="1.7442" height="10.5222" transform="matrix(0.5 -0.866025 -0.866025 -0.5 179.17 71.4697)" fill="#1E222E"/>
<rect x="179.211" y="71.4697" width="1.7442" height="10.7032" transform="rotate(-120 179.211 71.4697)" fill="#1E222E"/>
<rect x="188.615" y="66.0171" width="1.7442" height="10.5222" transform="rotate(-180 188.615 66.0171)" fill="#1E222E"/>
<rect x="170.001" y="55.3169" width="1.7442" height="10.7032" fill="#1E222E"/>
<rect x="187.559" y="54.9678" width="1.7442" height="20.2763" transform="rotate(60 187.559 54.9678)" fill="#1E222E"/>
<rect x="142.999" y="26" width="46" height="7" rx="3.5" fill="#56A5D1"/>
<rect x="107" y="26" width="31" height="7" rx="3.5" fill="#56A5D1"/>
<rect x="107" y="13" width="54" height="7" rx="3.5" fill="#56A5D1"/>
<rect x="165.999" y="13" width="23" height="7" rx="3.5" fill="#56A5D1"/>
<rect x="42.999" y="38" width="146" height="7" rx="3.5" fill="#56A5D1"/>
<rect x="42.999" y="50" width="35" height="7" rx="3.5" fill="#56A5D1"/>
<rect x="82.999" y="50" width="80" height="7" rx="3.5" fill="#56A5D1"/>
<rect x="42.999" y="62" width="58" height="7" rx="3.5" fill="#56A5D1"/>
<rect x="104.999" y="62" width="58" height="7" rx="3.5" fill="#56A5D1"/>
</g>
<defs>
<clipPath id="clip0_1075_1088">
<rect x="34.999" width="161" height="80" rx="7" fill="white"/>
</clipPath>
</defs>
</svg>
