<svg width="190" height="82" viewBox="0 0 190 82" fill="none" xmlns="http://www.w3.org/2000/svg">
<rect x="5" y="65" width="7" height="17" rx="3.5" fill="#2D5D81"/>
<rect x="2" y="2" width="13" height="75" rx="6.5" fill="#2E80BC"/>
<rect y="2" width="17" height="35" rx="7" fill="#3C98DB"/>
<g clip-path="url(#clip0_1074_963)">
<rect x="29" width="161" height="80" rx="7" fill="#2E80BC"/>
<g opacity="0.5">
<circle cx="26.5" cy="76.5" r="20.5" fill="#7177DF"/>
<circle cx="26.5" cy="76.5" r="20.5" fill="#7177DF"/>
<circle cx="26.5" cy="76.5" r="20.5" fill="#7ECBE6"/>
<circle cx="51.5" cy="88.5" r="20.5" fill="#7177DF"/>
<circle cx="51.5" cy="88.5" r="20.5" fill="#7177DF"/>
<circle cx="51.5" cy="88.5" r="20.5" fill="#7ECBE6"/>
<circle cx="20.5" cy="20.5" r="20.5" transform="matrix(1 0 0 -1 168 37)" fill="#7177DF"/>
<circle cx="20.5" cy="20.5" r="20.5" transform="matrix(1 0 0 -1 168 37)" fill="#7177DF"/>
<circle cx="20.5" cy="20.5" r="20.5" transform="matrix(1 0 0 -1 168 37)" fill="#7ECBE6"/>
<circle cx="15" cy="15" r="15" transform="matrix(1 0 0 -1 155 10)" fill="#7177DF"/>
<circle cx="15" cy="15" r="15" transform="matrix(1 0 0 -1 155 10)" fill="#7177DF"/>
<circle cx="15" cy="15" r="15" transform="matrix(1 0 0 -1 155 10)" fill="#7ECBE6"/>
</g>
<path d="M48.838 17.092C48.922 17.224 48.994 17.404 49.054 17.632C49.126 17.848 49.162 18.076 49.162 18.316C49.162 18.784 49.06 19.12 48.856 19.324C48.664 19.516 48.4 19.612 48.064 19.612H44.284V21.646H48.226C48.322 21.778 48.4 21.952 48.46 22.168C48.532 22.384 48.568 22.612 48.568 22.852C48.568 23.308 48.466 23.638 48.262 23.842C48.07 24.034 47.806 24.13 47.47 24.13H44.32V27.928C44.188 27.964 43.978 28 43.69 28.036C43.414 28.072 43.138 28.09 42.862 28.09C42.586 28.09 42.34 28.066 42.124 28.018C41.92 27.982 41.746 27.91 41.602 27.802C41.458 27.694 41.35 27.544 41.278 27.352C41.206 27.16 41.17 26.908 41.17 26.596V18.766C41.17 18.25 41.32 17.842 41.62 17.542C41.92 17.242 42.328 17.092 42.844 17.092H48.838ZM50.8246 22.528C50.8246 21.592 50.9686 20.764 51.2566 20.044C51.5566 19.324 51.9586 18.724 52.4626 18.244C52.9786 17.752 53.5786 17.38 54.2626 17.128C54.9586 16.876 55.7086 16.75 56.5126 16.75C57.3166 16.75 58.0606 16.876 58.7446 17.128C59.4406 17.38 60.0466 17.752 60.5626 18.244C61.0786 18.724 61.4806 19.324 61.7686 20.044C62.0686 20.764 62.2186 21.592 62.2186 22.528C62.2186 23.464 62.0746 24.298 61.7866 25.03C61.4986 25.75 61.0966 26.356 60.5806 26.848C60.0766 27.328 59.4766 27.694 58.7806 27.946C58.0846 28.198 57.3286 28.324 56.5126 28.324C55.6966 28.324 54.9406 28.198 54.2446 27.946C53.5486 27.682 52.9486 27.304 52.4446 26.812C51.9406 26.32 51.5446 25.714 51.2566 24.994C50.9686 24.274 50.8246 23.452 50.8246 22.528ZM54.0646 22.528C54.0646 23.62 54.2866 24.436 54.7306 24.976C55.1746 25.516 55.7686 25.786 56.5126 25.786C57.2686 25.786 57.8686 25.516 58.3126 24.976C58.7566 24.436 58.9786 23.62 58.9786 22.528C58.9786 21.448 58.7566 20.638 58.3126 20.098C57.8806 19.558 57.2866 19.288 56.5306 19.288C55.7866 19.288 55.1866 19.558 54.7306 20.098C54.2866 20.626 54.0646 21.436 54.0646 22.528ZM67.8729 24.472V27.928C67.7409 27.964 67.5309 28 67.2429 28.036C66.9669 28.072 66.6909 28.09 66.4149 28.09C66.1389 28.09 65.8929 28.066 65.6769 28.018C65.4729 27.982 65.2989 27.91 65.1549 27.802C65.0229 27.694 64.9209 27.544 64.8489 27.352C64.7769 27.16 64.7409 26.908 64.7409 26.596V18.118C64.7409 17.866 64.8069 17.674 64.9389 17.542C65.0829 17.398 65.2749 17.284 65.5149 17.2C65.9229 17.056 66.3969 16.954 66.9369 16.894C67.4769 16.822 68.0529 16.786 68.6649 16.786C70.3209 16.786 71.5689 17.134 72.4089 17.83C73.2489 18.526 73.6689 19.468 73.6689 20.656C73.6689 21.4 73.4769 22.036 73.0929 22.564C72.7089 23.092 72.2529 23.5 71.7249 23.788C72.1569 24.376 72.5829 24.928 73.0029 25.444C73.4229 25.96 73.7529 26.428 73.9929 26.848C73.8729 27.268 73.6509 27.592 73.3269 27.82C73.0149 28.036 72.6609 28.144 72.2649 28.144C72.0009 28.144 71.7729 28.114 71.5809 28.054C71.3889 27.994 71.2209 27.91 71.0769 27.802C70.9329 27.694 70.8009 27.562 70.6809 27.406C70.5609 27.25 70.4469 27.082 70.3389 26.902L68.8269 24.472H67.8729ZM69.0069 22.078C69.4629 22.078 69.8229 21.964 70.0869 21.736C70.3509 21.496 70.4829 21.148 70.4829 20.692C70.4829 20.236 70.3329 19.894 70.0329 19.666C69.7449 19.426 69.2829 19.306 68.6469 19.306C68.4669 19.306 68.3229 19.312 68.2149 19.324C68.1069 19.336 67.9869 19.354 67.8549 19.378V22.078H69.0069ZM83.9013 25.318C83.7453 25.45 83.5413 25.558 83.2893 25.642C83.0493 25.714 82.7673 25.75 82.4433 25.75C82.0113 25.75 81.6513 25.696 81.3633 25.588C81.0873 25.48 80.9073 25.294 80.8233 25.03C80.4873 23.974 80.2113 23.122 79.9953 22.474C79.7793 21.814 79.6113 21.238 79.4913 20.746H79.4013C79.3653 21.454 79.3353 22.102 79.3113 22.69C79.2993 23.266 79.2873 23.83 79.2753 24.382C79.2753 24.934 79.2633 25.492 79.2393 26.056C79.2273 26.62 79.2033 27.244 79.1673 27.928C79.0113 27.988 78.8073 28.036 78.5553 28.072C78.3033 28.12 78.0513 28.144 77.7993 28.144C77.2713 28.144 76.8573 28.06 76.5573 27.892C76.2693 27.724 76.1253 27.418 76.1253 26.974L76.6473 17.794C76.7433 17.638 76.9533 17.47 77.2773 17.29C77.6013 17.11 78.0573 17.02 78.6453 17.02C79.2813 17.02 79.7793 17.122 80.1393 17.326C80.4993 17.518 80.7633 17.836 80.9313 18.28C81.0393 18.568 81.1533 18.898 81.2733 19.27C81.4053 19.642 81.5313 20.026 81.6513 20.422C81.7833 20.818 81.9093 21.214 82.0293 21.61C82.1493 21.994 82.2573 22.342 82.3533 22.654H82.4433C82.7313 21.646 83.0193 20.674 83.3073 19.738C83.5953 18.79 83.8593 17.998 84.0993 17.362C84.2793 17.266 84.5073 17.188 84.7833 17.128C85.0713 17.056 85.3893 17.02 85.7373 17.02C86.3253 17.02 86.8053 17.11 87.1773 17.29C87.5493 17.458 87.7653 17.704 87.8253 18.028C87.8733 18.268 87.9213 18.64 87.9693 19.144C88.0293 19.636 88.0893 20.194 88.1493 20.818C88.2093 21.442 88.2693 22.102 88.3293 22.798C88.3893 23.494 88.4433 24.166 88.4913 24.814C88.5513 25.45 88.5993 26.038 88.6353 26.578C88.6713 27.106 88.6953 27.514 88.7073 27.802C88.5033 27.922 88.2873 28.006 88.0593 28.054C87.8433 28.114 87.5613 28.144 87.2133 28.144C86.7573 28.144 86.3733 28.066 86.0613 27.91C85.7493 27.754 85.5813 27.448 85.5573 26.992C85.4853 25.684 85.4373 24.508 85.4133 23.464C85.4013 22.42 85.3773 21.544 85.3413 20.836H85.2513C85.1313 21.304 84.9573 21.892 84.7293 22.6C84.5013 23.308 84.2253 24.214 83.9013 25.318Z" fill="#1E222E"/>
<rect x="172.344" y="50.6538" width="1.7442" height="20.2763" fill="#1E222E"/>
<rect x="164" y="56.4785" width="1.7442" height="20.2763" transform="rotate(-60 164 56.4785)" fill="#1E222E"/>
<rect x="173.171" y="50" width="1.7442" height="10.5222" transform="rotate(60 173.171 50)" fill="#1E222E"/>
<rect width="1.7442" height="10.7032" transform="matrix(-0.5 0.866025 0.866025 0.5 173.212 50)" fill="#1E222E"/>
<rect width="1.7442" height="10.5222" transform="matrix(0.5 -0.866025 -0.866025 -0.5 173.171 71.4697)" fill="#1E222E"/>
<rect x="173.212" y="71.4697" width="1.7442" height="10.7032" transform="rotate(-120 173.212 71.4697)" fill="#1E222E"/>
<rect x="182.616" y="66.0171" width="1.7442" height="10.5222" transform="rotate(-180 182.616 66.0171)" fill="#1E222E"/>
<rect x="164.002" y="55.3169" width="1.7442" height="10.7032" fill="#1E222E"/>
<rect x="181.56" y="54.9678" width="1.7442" height="20.2763" transform="rotate(60 181.56 54.9678)" fill="#1E222E"/>
<rect x="137" y="26" width="46" height="7" rx="3.5" fill="#56A5D1"/>
<rect x="95" y="26" width="37" height="7" rx="3.5" fill="#56A5D1"/>
<rect x="95" y="13" width="60" height="7" rx="3.5" fill="#56A5D1"/>
<rect x="160" y="13" width="23" height="7" rx="3.5" fill="#56A5D1"/>
<rect x="37" y="38" width="146" height="7" rx="3.5" fill="#56A5D1"/>
<rect x="37" y="50" width="35" height="7" rx="3.5" fill="#56A5D1"/>
<rect x="77" y="50" width="80" height="7" rx="3.5" fill="#56A5D1"/>
<rect x="37" y="62" width="58" height="7" rx="3.5" fill="#56A5D1"/>
<rect x="99" y="62" width="58" height="7" rx="3.5" fill="#56A5D1"/>
</g>
<defs>
<clipPath id="clip0_1074_963">
<rect x="29" width="161" height="80" rx="7" fill="white"/>
</clipPath>
</defs>
</svg>
