<svg width="187" height="80" viewBox="0 0 187 80" fill="none" xmlns="http://www.w3.org/2000/svg">
<g clip-path="url(#clip0_1074_1026)">
<rect width="187" height="80" rx="7" fill="#2E80BC"/>
<circle cx="-3" cy="40" r="17" fill="#161922"/>
<g opacity="0.5">
<circle cx="10.5" cy="75.5" r="20.5" fill="#7177DF"/>
<circle cx="10.5" cy="75.5" r="20.5" fill="#7177DF"/>
<circle cx="10.5" cy="75.5" r="20.5" fill="#7ECBE6"/>
<circle cx="35.5" cy="87.5" r="20.5" fill="#7177DF"/>
<circle cx="35.5" cy="87.5" r="20.5" fill="#7177DF"/>
<circle cx="35.5" cy="87.5" r="20.5" fill="#7ECBE6"/>
<circle cx="20.5" cy="20.5" r="20.5" transform="matrix(1 0 0 -1 152 36)" fill="#7177DF"/>
<circle cx="20.5" cy="20.5" r="20.5" transform="matrix(1 0 0 -1 152 36)" fill="#7177DF"/>
<circle cx="20.5" cy="20.5" r="20.5" transform="matrix(1 0 0 -1 152 36)" fill="#7ECBE6"/>
<circle cx="20.5" cy="20.5" r="20.5" transform="matrix(1 0 0 -1 73.9995 49)" fill="#7177DF"/>
<circle cx="20.5" cy="20.5" r="20.5" transform="matrix(1 0 0 -1 73.9995 49)" fill="#7177DF"/>
<circle cx="20.5" cy="20.5" r="20.5" transform="matrix(1 0 0 -1 73.9995 49)" fill="#7ECBE6"/>
<circle cx="12.5" cy="12.5" r="12.5" transform="matrix(1 0 0 -1 95.9995 54)" fill="#7177DF"/>
<circle cx="12.5" cy="12.5" r="12.5" transform="matrix(1 0 0 -1 95.9995 54)" fill="#7177DF"/>
<circle cx="12.5" cy="12.5" r="12.5" transform="matrix(1 0 0 -1 95.9995 54)" fill="#7ECBE6"/>
<circle cx="9.5" cy="9.5" r="9.5" transform="matrix(1 0 0 -1 81.9995 55)" fill="#7177DF"/>
<circle cx="9.5" cy="9.5" r="9.5" transform="matrix(1 0 0 -1 81.9995 55)" fill="#7177DF"/>
<circle cx="9.5" cy="9.5" r="9.5" transform="matrix(1 0 0 -1 81.9995 55)" fill="#7ECBE6"/>
<circle cx="15" cy="15" r="15" transform="matrix(1 0 0 -1 139 9)" fill="#7177DF"/>
<circle cx="15" cy="15" r="15" transform="matrix(1 0 0 -1 139 9)" fill="#7177DF"/>
<circle cx="15" cy="15" r="15" transform="matrix(1 0 0 -1 139 9)" fill="#7ECBE6"/>
</g>
<circle cx="190" cy="40" r="17" fill="#161922"/>
<rect x="64.9272" y="10.8755" width="5.00178" height="58.1456" fill="#1E222E"/>
<rect x="41" y="27.5781" width="5.00178" height="58.1456" transform="rotate(-60 41 27.5781)" fill="#1E222E"/>
<rect x="67.3003" y="9" width="5.00178" height="30.174" transform="rotate(60 67.3003 9)" fill="#1E222E"/>
<rect width="5.00178" height="30.693" transform="matrix(-0.5 0.866025 0.866025 0.5 67.416 9)" fill="#1E222E"/>
<rect width="5.00178" height="30.174" transform="matrix(0.5 -0.866025 -0.866025 -0.5 67.3003 70.5684)" fill="#1E222E"/>
<rect x="67.416" y="70.5684" width="5.00178" height="30.693" transform="rotate(-120 67.416 70.5684)" fill="#1E222E"/>
<rect x="94.3843" y="54.9312" width="5.00178" height="30.174" transform="rotate(-180 94.3843 54.9312)" fill="#1E222E"/>
<rect x="41.0068" y="24.2471" width="5.00178" height="30.693" fill="#1E222E"/>
<rect x="91.3555" y="23.2461" width="5.00178" height="58.1456" transform="rotate(60 91.3555 23.2461)" fill="#1E222E"/>
<circle cx="125" cy="7" r="4" fill="#1E222E"/>
<circle cx="125" cy="18" r="4" fill="#1E222E"/>
<circle cx="125" cy="29" r="4" fill="#1E222E"/>
<circle cx="125" cy="40" r="4" fill="#1E222E"/>
<circle cx="125" cy="51" r="4" fill="#1E222E"/>
<circle cx="125" cy="62" r="4" fill="#1E222E"/>
<circle cx="125" cy="73" r="4" fill="#1E222E"/>
<path d="M148.562 69.8145C148.43 69.8985 148.25 69.9765 148.022 70.0485C147.794 70.1205 147.554 70.1565 147.302 70.1565C146.834 70.1565 146.498 70.0545 146.294 69.8505C146.09 69.6345 145.988 69.3585 145.988 69.0225L145.988 61.1745C146.12 61.0905 146.3 61.0125 146.528 60.9405C146.756 60.8685 146.996 60.8325 147.248 60.8325C147.716 60.8325 148.052 60.9405 148.256 61.1565C148.46 61.3605 148.562 61.6305 148.562 61.9665L148.562 63.9645L156.878 63.9645C156.914 64.0965 156.95 64.3065 156.986 64.5945C157.022 64.8705 157.04 65.1465 157.04 65.4225C157.04 65.6985 157.016 65.9445 156.968 66.1605C156.932 66.3645 156.86 66.5385 156.752 66.6825C156.644 66.8265 156.494 66.9345 156.302 67.0065C156.11 67.0785 155.858 67.1145 155.546 67.1145L148.562 67.1145L148.562 69.8145ZM156.878 55.4385C156.914 55.5705 156.95 55.7805 156.986 56.0685C157.022 56.3445 157.04 56.6205 157.04 56.8965C157.04 57.1725 157.016 57.4185 156.968 57.6345C156.932 57.8385 156.86 58.0125 156.752 58.1565C156.644 58.3005 156.494 58.4085 156.302 58.4805C156.11 58.5525 155.858 58.5885 155.546 58.5885L146.042 58.5885C146.018 58.4565 145.988 58.2465 145.952 57.9585C145.904 57.6705 145.88 57.3945 145.88 57.1305C145.88 56.8545 145.904 56.6145 145.952 56.4105C145.988 56.1945 146.06 56.0145 146.168 55.8705C146.276 55.7265 146.426 55.6185 146.618 55.5465C146.81 55.4745 147.062 55.4385 147.374 55.4385L156.878 55.4385ZM148.238 46.8221C148.238 47.7461 148.52 48.4541 149.084 48.9461C149.648 49.4381 150.446 49.6841 151.478 49.6841C152.522 49.6841 153.326 49.4141 153.89 48.8741C154.454 48.3221 154.736 47.5841 154.736 46.6601C154.736 46.1681 154.67 45.7541 154.538 45.4181C154.406 45.0701 154.256 44.7401 154.088 44.4281C154.256 44.2241 154.46 44.0681 154.7 43.9601C154.928 43.8401 155.198 43.7801 155.51 43.7801C156.002 43.7801 156.422 44.0561 156.77 44.6081C157.106 45.1481 157.274 45.9761 157.274 47.0921C157.274 47.8961 157.16 48.6521 156.932 49.3601C156.704 50.0681 156.356 50.6861 155.888 51.2141C155.408 51.7421 154.808 52.1621 154.088 52.4741C153.356 52.7741 152.486 52.9241 151.478 52.9241C150.542 52.9241 149.72 52.7801 149.012 52.4921C148.292 52.1921 147.686 51.7901 147.194 51.2861C146.702 50.7701 146.33 50.1701 146.078 49.4861C145.826 48.8021 145.7 48.0701 145.7 47.2901C145.7 46.1861 145.88 45.3341 146.24 44.7341C146.6 44.1221 147.062 43.8161 147.626 43.8161C147.938 43.8161 148.208 43.8941 148.436 44.0501C148.664 44.2061 148.844 44.3861 148.976 44.5901C148.772 44.9021 148.598 45.2381 148.454 45.5981C148.31 45.9461 148.238 46.3541 148.238 46.8221ZM152.9 38.2129L156.878 38.2129C156.914 38.3449 156.95 38.5549 156.986 38.8429C157.022 39.1309 157.04 39.4129 157.04 39.6889C157.04 39.9649 157.016 40.2109 156.968 40.4269C156.932 40.6309 156.86 40.8049 156.752 40.9489C156.644 41.0929 156.494 41.2009 156.302 41.2729C156.11 41.3449 155.858 41.3809 155.546 41.3809L146.042 41.3809C146.018 41.2489 145.988 41.0389 145.952 40.7509C145.904 40.4629 145.88 40.1869 145.88 39.9229C145.88 39.6469 145.904 39.4069 145.952 39.2029C145.988 38.9869 146.06 38.8069 146.168 38.6629C146.276 38.5189 146.426 38.4109 146.618 38.3389C146.81 38.2669 147.062 38.2309 147.374 38.2309L150.236 38.2309L145.934 34.4869C145.934 33.6709 146.09 33.0889 146.402 32.7409C146.702 32.3809 147.062 32.2009 147.482 32.2009C147.794 32.2009 148.088 32.2789 148.364 32.4349C148.64 32.5909 148.952 32.8429 149.3 33.1909L151.55 35.4409C151.886 35.1409 152.234 34.8289 152.594 34.5049C152.954 34.1689 153.308 33.8449 153.656 33.5329C153.992 33.2089 154.316 32.9029 154.628 32.6149C154.94 32.3149 155.21 32.0569 155.438 31.8409C155.702 31.8409 155.936 31.8889 156.14 31.9849C156.344 32.0809 156.518 32.2129 156.662 32.3809C156.806 32.5369 156.914 32.7169 156.986 32.9209C157.058 33.1249 157.094 33.3409 157.094 33.5689C157.094 34.0609 156.974 34.4629 156.734 34.7749C156.482 35.0869 156.188 35.3869 155.852 35.6749L152.9 38.2129ZM147.716 29.5867C147.2 29.5867 146.792 29.4367 146.492 29.1367C146.192 28.8367 146.042 28.4287 146.042 27.9127L146.042 21.9727C146.174 21.8887 146.348 21.8167 146.564 21.7567C146.78 21.6847 147.008 21.6487 147.248 21.6487C147.704 21.6487 148.028 21.7507 148.22 21.9547C148.412 22.1467 148.508 22.4047 148.508 22.7287L148.508 26.5267L150.182 26.5267L150.182 22.4767C150.314 22.3927 150.488 22.3207 150.704 22.2607C150.908 22.1887 151.13 22.1527 151.37 22.1527C151.826 22.1527 152.15 22.2487 152.342 22.4407C152.534 22.6327 152.63 22.8907 152.63 23.2147L152.63 26.5267L154.52 26.5267L154.52 21.9007C154.652 21.8167 154.826 21.7447 155.042 21.6847C155.258 21.6127 155.486 21.5767 155.726 21.5767C156.182 21.5767 156.512 21.6787 156.716 21.8827C156.908 22.0747 157.004 22.3327 157.004 22.6567L157.004 27.9127C157.004 28.4287 156.854 28.8367 156.554 29.1367C156.254 29.4367 155.846 29.5867 155.33 29.5867L147.716 29.5867ZM148.562 19.5094C148.43 19.5934 148.25 19.6714 148.022 19.7434C147.794 19.8154 147.554 19.8514 147.302 19.8514C146.834 19.8514 146.498 19.7494 146.294 19.5454C146.09 19.3294 145.988 19.0534 145.988 18.7174L145.988 10.8694C146.12 10.7854 146.3 10.7074 146.528 10.6354C146.756 10.5634 146.996 10.5274 147.248 10.5274C147.716 10.5274 148.052 10.6354 148.256 10.8514C148.46 11.0554 148.562 11.3254 148.562 11.6614L148.562 13.6594L156.878 13.6594C156.914 13.7914 156.95 14.0014 156.986 14.2894C157.022 14.5654 157.04 14.8414 157.04 15.1174C157.04 15.3934 157.016 15.6394 156.968 15.8554C156.932 16.0594 156.86 16.2334 156.752 16.3774C156.644 16.5214 156.494 16.6294 156.302 16.7014C156.11 16.7734 155.858 16.8094 155.546 16.8094L148.562 16.8094L148.562 19.5094Z" fill="#1E222E"/>
</g>
<defs>
<clipPath id="clip0_1074_1026">
<rect width="187" height="80" rx="7" fill="white"/>
</clipPath>
</defs>
</svg>
